<svg width="1440" height="1024" viewBox="0 0 1440 1024" xmlns="http://www.w3.org/2000/svg">
  <defs>
    <style>
      .text { font-family: Arial, sans-serif; fill: #1A1A1A; }
      .muted { fill: #6B7280; }
      .panel { fill: #ffffff; stroke: #E5E7EB; }
      .brand { fill: #B8860B; }
      .bg { fill: #F3F4F6; }
    </style>
  </defs>
  <rect class="bg" x="0" y="0" width="1440" height="1024" />
  <text x="40" y="60" class="text" font-size="36" font-weight="700">Admin Dashboard</text>
  <g transform="translate(40,100)">
    <rect x="0" y="0" width="420" height="280" rx="16" class="panel"/>
    <text x="24" y="40" class="text" font-size="24" font-weight="700">Price Settings</text>
    <text x="24" y="76" class="muted" font-size="18">Manual overrides, making charges, wastage</text>
    <rect x="460" y="0" width="420" height="280" rx="16" class="panel"/>
    <text x="484" y="40" class="text" font-size="24" font-weight="700">Catalogue</text>
    <text x="484" y="76" class="muted" font-size="18">Products, categories, images</text>
    <rect x="920" y="0" width="420" height="280" rx="16" class="panel"/>
    <text x="944" y="40" class="text" font-size="24" font-weight="700">Workshop</text>
    <text x="944" y="76" class="muted" font-size="18">Designs and requests</text>
    <rect x="0" y="300" width="420" height="280" rx="16" class="panel"/>
    <text x="24" y="340" class="text" font-size="24" font-weight="700">Banners</text>
    <text x="24" y="376" class="muted" font-size="18">Homepage promotions</text>
    <rect x="460" y="300" width="420" height="280" rx="16" class="panel"/>
    <text x="484" y="340" class="text" font-size="24" font-weight="700">Users & Roles</text>
    <text x="484" y="376" class="muted" font-size="18">Owner, Workshop Manager</text>
    <rect x="920" y="300" width="420" height="280" rx="16" class="panel"/>
    <text x="944" y="340" class="text" font-size="24" font-weight="700">Audit Log</text>
    <text x="944" y="376" class="muted" font-size="18">Recent changes</text>
  </g>
  <rect x="40" y="900" width="160" height="56" rx="8" class="brand"/>
  <text x="60" y="936" font-size="22" fill="#fff">Save Changes</text>
</svg>